/* XPM */
static char *sparks48[] = {
/* columns rows colors chars-per-pixel */
"48 48 3 1 ",
"  c black",
". c #FF5555",
"X c None",
/* pixels */
"XXXXXXXXXXXXXXXXXXXXXXXXXXXXXXXXXXXXXXXXXXXXXXXX",
"XXXXXXXXXXXXXXXXXXXXXX.XXXXXXXXXXXXXXXXXXXXXXXXX",
"XXXXXXXXXXXXXXXXXXXXXX..XXXXXXXXXXXXXXXXXXXXXXXX",
"XXXXXXXXXXXXXXXXXXXXXXX...XXXXXXXXXXXXXXXXXXXXXX",
"XXXXXXXXXXXXXXXXXXXXXXXX...XXXXXXXXXXXXXXXXXXXXX",
"XXXXXXXXXXXXXXXXXXXXXXXX....XXXXXXXXXXXXXXXXXXXX",
"XXXXXXXXXXXXXXXXXXXXXXXX.....XXXXXXXXXXXXXXXXXXX",
"XXXXXXXXXXXXXXXXXXXXXXXXX.....XXXXXXXXXXXXXXXXXX",
"XXXXXXXXXXXXXXXXXXXXXXXXX......XXXXXXXXXXXXXXXXX",
"XXXXXXXXXXXXXXXXXXXXXXXXX......XXXXXXXXXXXXXXXXX",
"XXXXXXXXXXXXXXXXXXXXXXXXX.......XXXXXXXXXXXXXXXX",
"XXXXXXXXXXXXXXXXXXXXXXXXX.......XXXXXXXXXXXXXXXX",
"XXXXXXXXXXXXXXXXXXXXXXXXX........XXXXXXXXXXXXXXX",
"XXXXXXXXXXXXXXXXXXXXXXXXX........XXXXXXXXXXXXXXX",
"XXXXXXXXXXX.XXXXXXXXXXXXX........XXXXXXXXXXXXXXX",
"XXXXXXXXXXX.XXXXXXXXXXXXX.........XXXXXXXXXXXXXX",
"XXXXXXXXXX..XXXXXXXXXXXXX.........XXXXXXXXXXXXXX",
"XXXXXXXXXX..XXXXXXXXXXXX..........XXXXXXXXXXXXXX",
"XXXXXXXXXX..XXXXXXXXXXXX..........XXXXXXXXXXXXXX",
"XXXXXXXXX....XXXXXXXXXX...........XXXXXXXXXXXXXX",
"XXXXXXXXX.....XXXXXXXX............XX XXXXXXXXXXX",
"XXXXXXXXX.......XXX...............XX  XXXXXXXXXX",
"XXXXXXXX.........................XXX  XXXXXXXXXX",
"XXXXXXXX.........................XX   XXXXXXXXXX",
"XXXXXXXX.........................XX    XXXXXXXXX",
"XXXXXXXX........................XXX    XXXXXXXXX",
"XXXXXXXX........................XXX    XXXXXXXXX",
"XXXXXXXX........................XX      XXXXXXXX",
"XXXXXXXX.......................XXX      XXXXXXXX",
"XXXXXXXX.......................XX       XXXXXXXX",
"XXXXXXXX......................XXX       XXXXXXXX",
"XXXXXXXX.....................XXX        XXXXXXXX",
"XXXXXXXX.....................XXX        XXXXXXXX",
"XXXXXXXX....................XXX         XXXXXXXX",
"XXXXXXXXX..................XXX          XXXXXXXX",
"XXXXXXXXX.................XXXX         XXXXXXXXX",
"XXXXXXXXX.................XXX          XXXXXXXXX",
"XXXXXXXXXX...............XXX          XXXXXXXXXX",
"XXXXXXXXXXX..............XXX          XXXXXXXXXX",
"XXXXXXXXXXXX............XXX          XXXXXXXXXXX",
"XXXXXXXXXXXX............XXX         XXXXXXXXXXXX",
"XXXXXXXXXXXXXX..........XXX        XXXXXXXXXXXXX",
"XXXXXXXXXXXXXXX.........XX       XXXXXXXXXXXXXXX",
"XXXXXXXXXXXXXXXX........XX      XXXXXXXXXXXXXXXX",
"XXXXXXXXXXXXXXXXXX......XX    XXXXXXXXXXXXXXXXXX",
"XXXXXXXXXXXXXXXXXXXX....XXX  XXXXXXXXXXXXXXXXXXX",
"XXXXXXXXXXXXXXXXXXXXXX...XX XXXXXXXXXXXXXXXXXXXX",
"XXXXXXXXXXXXXXXXXXXXXXXXXXXXXXXXXXXXXXXXXXXXXXXX"
};
